<svg xmlns="http://www.w3.org/2000/svg" height="48" width="48" version="1.1" viewBox="0 0 48 47.999998">
	<defs>
		<linearGradient id="a" y2="-64.7" gradientUnits="userSpaceOnUse" x2="394" gradientTransform="translate(3.4 -1.23)" y1="-131" x1="394">
			<stop stop-color="#424242" offset="0"/>
			<stop stop-color="#818181" offset="1"/>
		</linearGradient>
	</defs>
	<g transform="translate(-373 134)">
		<path d="m384-133c-1.77 0.0435-3.59 1.56-4.41 3.18-0.76 1.48-0.745 3.51 0 5s2.45 2.39 4 3c2.5 0.979 8 0.837 8 0.837v5.16h-10.2c-1.74 0.0418-1.83 0.252-2.08 2.13l-2.58 19.9-0.133 3c0.118 1.39 0.0283 2.87 3 3h17 18c2.97-0.132 2.88-1.61 3-3l-0.133-3-2.58-19.9c-0.256-1.88-0.303-2.03-2.08-2.13h-10.2v-5.16s5.5 0.143 8-0.837c1.55-0.609 3.25-1.51 4-3 0.745-1.49 0.766-3.52 0-5-0.822-1.59-2.62-3.04-4.38-3.1-4.73-0.16-8.73-0.221-13.1-0.234-4.37-0.0131-8.53 0.0424-13.1 0.155z" fill-rule="evenodd" stroke="#858585" stroke-width=".2" fill="url(#a)"/>
	</g>
</svg>
